<?xml version="1.0" encoding="utf-8"?>
<svg viewBox="0 0 700.8 109" width="700.8" height="109" xmlns="http://www.w3.org/2000/svg">
  <g transform="matrix(1, 0, 0, 1, -75.215019, -372.985016)">
    <linearGradient id="SVGID_1_" gradientUnits="userSpaceOnUse" x1="75.1969" y1="427.1998" x2="775.1968" y2="427.1998">
      <stop offset="0.0152" style="stop-color:#203D6D"/>
      <stop offset="0.347" style="stop-color:#1C365F"/>
      <stop offset="0.9516" style="stop-color:#212D57"/>
    </linearGradient>
    <path class="st3" d="M775.2,478.39c0,1.65-1.35,3-3,3h-694c-1.65,0-3-1.35-3-3V376.01c0-1.65,1.35-3,3-3h694c1.65,0,3,1.35,3,3 V478.39z" style="fill: url(#SVGID_1_);"/>
    <g>
      <path class="st4" d="M150.16,434.83v0.24c0,1.83,0.37,4.33,3.23,6.04c2.07,1.22,5.55,1.65,8.11,1.65c2.32,0,5.55-0.24,7.56-1.28 c2.62-1.34,3.17-3.42,3.17-4.88c0-1.83-0.85-3.23-2.75-4.27c-1.52-0.85-3.54-1.34-6.89-1.95l-5.49-0.98 c-6.16-1.1-10.68-2.01-13.24-4.33c-1.71-1.53-2.87-3.78-2.87-7.14c0-4.39,1.77-7.81,5.8-10.31c4.15-2.56,9.33-3.05,13.6-3.05 c8.91,0,12.93,2.14,13.91,2.68c5.55,3.11,6.04,7.81,6.04,10.31h-9.64c-0.06-1.65-0.61-3.6-3.29-5c-1.95-1.04-4.76-1.28-7.26-1.28 c-2.14,0-4.45,0.24-6.41,1.22c-2.87,1.4-3.23,3.42-3.23,4.51c0,2.56,1.95,3.48,3.29,4.03c2.07,0.85,4.45,1.16,8.36,1.83l4.82,0.79 c3.97,0.67,8.11,1.53,10.92,3.66c3.42,2.62,4.03,5.98,4.03,8.72c0,5.98-2.87,9.33-5.8,11.1c-3.66,2.2-8.66,2.56-13.48,2.56 c-6.89,0-11.41-0.61-14.88-2.2c-6.22-2.87-7.44-8.11-7.44-12.51v-0.18H150.16z" style="fill: rgb(255, 255, 255);"/>
      <path class="st4" d="M236.17,433.91c-0.37,4.94-2.56,8.3-4.64,10.37c-5.12,5.19-12.08,5.55-17.75,5.55s-12.38-0.49-17.75-5.73 c-2.07-2.07-6.16-7.2-6.16-16.71c0-8.72,3.54-13.79,6.04-16.35c5.37-5.49,12.57-6.41,18.06-6.41c4.64,0,11.1,0.61,15.8,4.03 c5.12,3.72,5.86,8.48,6.04,11.04h-9.76c-0.18-1.83-0.85-4.09-3.54-5.92c-2.44-1.65-5.37-1.95-7.99-1.95 c-3.42,0-7.38,0.49-10.62,3.9c-1.89,2.01-3.96,5.55-3.96,11.53c0,5.37,1.65,9.39,4.09,11.83c3.17,3.11,7.14,3.54,10.37,3.54 c2.75,0,6.04-0.31,8.66-2.38c1.46-1.16,3.05-3.17,3.36-6.34H236.17z" style="fill: rgb(255, 255, 255);"/>
      <path class="st4" d="M255.57,448.55h-9.46v-42.7h9.46v16.59h22.51v-16.59h9.46v42.7h-9.46v-18.91h-22.51V448.55z" style="fill: rgb(255, 255, 255);"/>
      <path class="st4" d="M342.92,448.55h-9.39l-23.73-30.93v30.93h-9.46v-42.7h9.46l23.67,30.93v-30.93h9.46V448.55z" style="fill: rgb(255, 255, 255);"/>
      <path class="st4" d="M365.18,405.85v42.7h-9.46v-42.7H365.18z" style="fill: rgb(255, 255, 255);"/>
      <path class="st4" d="M373.6,413.17v-7.32h40.14v7.32h-15.31v35.38h-9.46v-35.38H373.6z" style="fill: rgb(255, 255, 255);"/>
      <path class="st4" d="M459.25,405.85v6.04l-28.49,29.34h29.1v7.32h-40.32v-7.02l27.76-28.37h-25.81v-7.32H459.25z" style="fill: rgb(255, 255, 255);"/>
      <path class="st4" d="M478.52,448.55h-9.46v-42.7h9.46v16.59h22.51v-16.59h9.46v42.7h-9.46v-18.91h-22.51V448.55z" style="fill: rgb(255, 255, 255);"/>
      <path class="st4" d="M564.04,410.85c3.9,3.6,6.53,8.85,6.53,16.35c0,8.48-3.42,13.48-6.53,16.35c-4.03,3.72-10.55,6.22-18.3,6.22 c-7.81,0-14.28-2.5-18.3-6.22c-2.93-2.75-6.59-7.93-6.59-16.35c0-8.54,3.66-13.67,6.59-16.35c3.42-3.11,9.33-6.22,18.3-6.22 C556.3,404.63,561.85,408.84,564.04,410.85z M535.25,415.55c-2.75,2.62-4.33,6.89-4.33,11.65c0,4.76,1.59,8.97,4.33,11.59 c2.26,2.2,5.92,3.78,10.43,3.78c4.58,0,8.24-1.65,10.49-3.78c2.68-2.56,4.27-6.83,4.27-11.59c0-4.7-1.59-9.03-4.27-11.65 c-1.83-1.77-5.12-3.72-10.49-3.72C540.37,411.83,537.14,413.72,535.25,415.55z" style="fill: rgb(255, 255, 255);"/>
      <path class="st4" d="M612.6,423.91v7.08h-22.21v17.57h-9.46v-42.7h35.93v7.2h-26.48v10.86H612.6z" style="fill: rgb(255, 255, 255);"/>
      <path class="st4" d="M659.14,423.23v7.08h-24.4v11.04h28.98v7.2h-38.43v-42.7h37.7v7.2h-28.25v10.19H659.14z" style="fill: rgb(255, 255, 255);"/>
      <path class="st4" d="M672.38,405.85h24.22c3.78,0,9.82,0.24,13.36,3.29c2.93,2.5,3.42,5.92,3.42,8.42c0,2.68-0.55,5.31-2.87,7.63 c-1.53,1.52-3.6,2.56-5.61,2.99v0.18c1.65,0.3,3.66,1.16,4.94,2.5c1.95,1.95,2.07,4.15,2.2,6.28l0.37,5.37 c0.18,2.26,0.06,3.72,1.77,6.04H704.1c-1.16-1.71-1.53-3.29-1.65-5.49l-0.18-3.96c-0.12-2.01-0.24-4.27-2.2-5.86 c-1.77-1.46-4.76-1.59-6.53-1.59h-11.71v16.9h-9.46V405.85z M681.83,425.07h13.3c2.13,0,4.7-0.55,6.04-1.34 c1.1-0.67,2.68-2.2,2.68-5.06c0-2.81-1.4-4.21-2.5-4.88c-2.07-1.34-5.06-1.22-7.02-1.22h-12.51V425.07z" style="fill: rgb(255, 255, 255);"/>
    </g>
  </g>
</svg>