<?xml version="1.0" encoding="utf-8"?>
<svg viewBox="0 0 700.8 182.7" width="700.8" height="182.7" xmlns="http://www.w3.org/2000/svg">
  <g class="st0" transform="matrix(1, 0, 0, 1, -75.215019, -372.985016)" style="display: none;">
    <g class="st1">
      <path class="st2" d="M143.91,522.03h-0.15l0.15,1.32v20.91h-3.22v-25.59h4.68l10.31,22.19l10.27-22.19h4.68v25.59h-3.22v-20.91 l0.15-1.32h-0.15l-10.38,22.23h-2.74L143.91,522.03z" style="fill: rgb(124, 124, 123);"/>
      <path class="st2" d="M195.98,527.88c1.24,1.24,2.45,3.33,2.45,6.76c0,3.14-1.02,5.92-2.78,7.68c-2.49,2.49-5.78,2.67-7.9,2.67 c-2.78,0-5.89-0.4-8.3-2.67c-1.65-1.57-2.78-3.84-2.78-7.13c0-4.61,2.12-6.91,2.78-7.57c1.39-1.35,3.84-2.67,8.08-2.67 C192.11,524.95,194.63,526.53,195.98,527.88z M182.12,529.01c-1.5,1.43-2.3,3.69-2.3,6c0,2.16,0.77,4.53,2.3,5.96 c1.13,1.06,2.96,1.9,5.52,1.9c2.71,0,4.35-0.95,5.37-1.9c1.28-1.24,2.27-3.4,2.27-6c0-2.19-0.77-4.53-2.23-5.96 c-1.13-1.1-3.03-1.94-5.48-1.94C185.01,527.07,183.26,527.95,182.12,529.01z" style="fill: rgb(124, 124, 123);"/>
      <path class="st2" d="M207.03,544.26h-3.03v-25.59h3.07v9.91c0.62-1.02,1.43-1.83,2.71-2.52c1.61-0.84,3.14-1.06,4.83-1.06 c2.52,0,5.05,0.48,7.09,2.52c2.3,2.3,2.6,5.23,2.6,7.13c0,3.84-1.28,6.32-2.6,7.75c-2.27,2.41-5.05,2.56-7.24,2.56 c-1.57,0-3.18-0.18-4.61-0.88c-1.46-0.73-2.27-1.75-2.71-2.6h-0.11V544.26z M209.07,540.89c0.84,0.88,2.45,1.94,5.08,1.94 c1.43,0,3.36-0.26,4.9-1.86c1.46-1.54,2.08-3.99,2.08-6.14c0-3-1.02-4.83-2.01-5.81c-1.02-1.06-2.6-1.9-5.01-1.9 c-2.27,0-3.84,0.77-4.94,1.83c-1.32,1.28-2.19,3.33-2.19,6.03C206.99,538.63,208.64,540.46,209.07,540.89z" style="fill: rgb(124, 124, 123);"/>
      <path class="st2" d="M229.73,518.59h3.29v3.07h-3.29V518.59z M232.92,525.68v18.57h-3.07v-18.57H232.92z" style="fill: rgb(124, 124, 123);"/>
      <path class="st2" d="M242.5,518.66v25.59h-3.07v-25.59H242.5z" style="fill: rgb(124, 124, 123);"/>
      <path class="st2" d="M248.89,518.59h3.29v3.07h-3.29V518.59z M252.07,525.68v18.57H249v-18.57H252.07z" style="fill: rgb(124, 124, 123);"/>
      <path class="st2" d="M255.91,525.68h4.06v-5.56h3.07v5.56h4.46v2.19h-4.46v12.32c0,0.58,0,1.35,0.48,1.86 c0.48,0.51,1.24,0.59,1.79,0.59c0.59,0,1.39-0.11,2.3-0.48v2.08c-1.21,0.44-2.12,0.51-3.14,0.51c-1.17,0-2.49-0.07-3.4-0.8 c-1.1-0.91-1.1-2.3-1.1-3.8v-12.28h-4.06V525.68z" style="fill: rgb(124, 124, 123);"/>
      <path class="st2" d="M272.04,531.02c-0.04-1.86,0.77-3.18,1.54-3.99c1.61-1.68,4.13-2.08,7.17-2.08c2.56,0,5.74,0.33,7.42,2.08 c1.35,1.43,1.39,3.25,1.39,4.46v8.45c0,0.48-0.07,1.24,0.37,1.76c0.37,0.44,1.13,0.62,1.94,0.37v2.12 c-0.55,0.11-1.02,0.18-1.5,0.18c-0.91,0-2.01-0.07-2.74-0.88c-0.51-0.55-0.77-1.43-0.77-2.19c-0.84,1.35-1.94,2.16-2.85,2.6 c-1.39,0.66-3.14,0.8-4.83,0.8c-2.67,0-4.9-0.29-6.36-1.75c-0.77-0.73-1.43-1.94-1.43-3.66s0.69-2.89,1.35-3.58 c1.54-1.54,4.28-1.83,5.96-1.9l2.71-0.15c0.44-0.04,1.94-0.15,2.56-0.22c0.88-0.11,1.54-0.26,1.9-0.62 c0.37-0.33,0.62-0.95,0.62-1.9c0-1.28-0.51-2.12-0.99-2.6c-1.24-1.24-3.91-1.39-5.01-1.39c-2.78,0-4.02,0.77-4.61,1.43 c-0.48,0.51-0.99,1.39-0.91,2.67H272.04z M286.63,534.42c-0.26,0.22-0.51,0.37-0.88,0.48c-1.35,0.44-3.36,0.48-4.2,0.51 l-1.57,0.07c-1.65,0.07-3.66,0.29-4.68,1.46c-0.44,0.48-0.77,1.24-0.77,2.12c0,1.1,0.48,2.05,1.17,2.63 c1.17,0.99,3.11,1.02,3.84,1.02c2.71,0,4.24-0.84,5.12-1.72c1.32-1.32,1.86-3.66,1.94-5.59L286.63,534.42z M275.18,518.59h3v3h-3 V518.59z M282.9,518.59h3v3h-3V518.59z" style="fill: rgb(124, 124, 123);"/>
      <path class="st2" d="M294.27,525.68h4.06v-5.56h3.07v5.56h4.46v2.19h-4.46v12.32c0,0.58,0,1.35,0.48,1.86 c0.48,0.51,1.24,0.59,1.79,0.59c0.59,0,1.39-0.11,2.3-0.48v2.08c-1.21,0.44-2.12,0.51-3.14,0.51c-1.17,0-2.49-0.07-3.4-0.8 c-1.1-0.91-1.1-2.3-1.1-3.8v-12.28h-4.06V525.68z" style="fill: rgb(124, 124, 123);"/>
      <path class="st2" d="M319.21,518.59h3.29v3.07h-3.29V518.59z M322.39,525.68v18.57h-3.07v-18.57H322.39z" style="fill: rgb(124, 124, 123);"/>
      <path class="st2" d="M330.43,538.85v0.11c0,0.91,0.22,2.27,1.75,3.14c0.66,0.37,1.83,0.77,4.28,0.77c2.41,0,3.51-0.33,4.1-0.66 c0.84-0.48,1.61-1.39,1.61-2.82c0-1.21-0.62-1.9-1.54-2.38c-0.4-0.22-1.21-0.55-3.62-0.99l-2.45-0.44 c-3.22-0.59-4.46-1.13-5.15-1.61c-1.21-0.88-1.65-2.01-1.65-3.4c0-1.9,0.73-3.36,2.45-4.39c1.79-1.1,3.99-1.24,5.74-1.24 c1.79,0,3.88,0.11,5.67,0.91c2.08,0.95,3.03,2.67,2.92,4.64h-3c0.04-0.91-0.26-2.34-2.08-3c-0.33-0.11-1.46-0.48-3.58-0.48 c-2.19,0-3.22,0.51-3.66,0.77c-1.06,0.66-1.43,1.65-1.43,2.49c0,0.88,0.37,1.57,1.24,2.08c1.06,0.62,2.71,0.88,5.01,1.32 l2.45,0.48c2.08,0.4,3.25,0.84,4.06,1.46c1.39,1.06,1.72,2.45,1.72,3.66c0,1.72-0.55,3.18-2.08,4.28 c-1.86,1.32-4.53,1.43-6.51,1.43c-4.5,0-6.07-0.8-6.76-1.24c-2.12-1.32-2.45-3.4-2.45-4.79v-0.11H330.43z" style="fill: rgb(124, 124, 123);"/>
      <path class="st2" d="M347.69,525.68h4.06v-5.56h3.07v5.56h4.46v2.19h-4.46v12.32c0,0.58,0,1.35,0.48,1.86 c0.48,0.51,1.24,0.59,1.79,0.59c0.59,0,1.39-0.11,2.3-0.48v2.08c-1.21,0.44-2.12,0.51-3.14,0.51c-1.17,0-2.49-0.07-3.4-0.8 c-1.1-0.91-1.1-2.3-1.1-3.8v-12.28h-4.06V525.68z" style="fill: rgb(124, 124, 123);"/>
      <path class="st2" d="M387.73,544.26v-2.63h-0.15c-0.66,1.32-1.65,2.05-2.38,2.45c-0.91,0.48-2.27,0.88-4.5,0.88 c-1.57,0-3.91-0.15-5.52-1.28c-1.97-1.39-2.45-3.55-2.45-6.4v-11.59h3.07v11.33c0,1.43,0,3.18,1.17,4.42 c0.69,0.73,1.9,1.39,4.13,1.39c1.68,0,3.36-0.33,4.64-1.68c0.88-0.91,1.86-2.63,1.86-5.67v-9.8h3.07v18.57H387.73z" style="fill: rgb(124, 124, 123);"/>
      <path class="st2" d="M400.31,525.68v2.67c0.84-1.32,1.9-2.08,2.67-2.49c1.46-0.77,3-0.88,4.42-0.88c1.97,0,4.57,0.26,6.18,1.9 c1.5,1.5,1.61,3.51,1.61,4.79v12.58h-3.07v-11.3c0-1.57-0.07-3.44-1.28-4.61c-0.88-0.88-2.41-1.24-3.95-1.24 c-1.65,0-3.29,0.33-4.64,1.68c-0.95,0.95-1.9,2.6-1.9,5.96v9.51h-3.14v-18.57H400.31z" style="fill: rgb(124, 124, 123);"/>
      <path class="st2" d="M423.24,538.85v0.11c0,0.91,0.22,2.27,1.75,3.14c0.66,0.37,1.83,0.77,4.28,0.77c2.41,0,3.51-0.33,4.09-0.66 c0.84-0.48,1.61-1.39,1.61-2.82c0-1.21-0.62-1.9-1.54-2.38c-0.4-0.22-1.21-0.55-3.62-0.99l-2.45-0.44 c-3.22-0.59-4.46-1.13-5.15-1.61c-1.21-0.88-1.65-2.01-1.65-3.4c0-1.9,0.73-3.36,2.45-4.39c1.79-1.1,3.99-1.24,5.74-1.24 c1.79,0,3.88,0.11,5.67,0.91c2.08,0.95,3.03,2.67,2.93,4.64h-3c0.04-0.91-0.26-2.34-2.08-3c-0.33-0.11-1.46-0.48-3.58-0.48 c-2.19,0-3.22,0.51-3.66,0.77c-1.06,0.66-1.43,1.65-1.43,2.49c0,0.88,0.37,1.57,1.24,2.08c1.06,0.62,2.71,0.88,5.01,1.32 l2.45,0.48c2.08,0.4,3.25,0.84,4.06,1.46c1.39,1.06,1.72,2.45,1.72,3.66c0,1.72-0.55,3.18-2.08,4.28 c-1.86,1.32-4.53,1.43-6.51,1.43c-4.5,0-6.07-0.8-6.76-1.24c-2.12-1.32-2.45-3.4-2.45-4.79v-0.11H423.24z" style="fill: rgb(124, 124, 123);"/>
      <path class="st2" d="M462.47,538.74c-0.29,3.84-3.22,5.16-3.91,5.45c-1.65,0.66-3.62,0.8-5.85,0.8c-2.6,0-5.74-0.18-8.01-2.45 c-1.21-1.21-2.49-3.47-2.49-7.42c0-1.97,0.29-5.08,2.63-7.42c2.3-2.3,5.41-2.74,7.71-2.74c3.58,0,6.14,0.77,7.9,2.56 c2.05,2.12,2.41,4.86,2.41,7.6v0.44h-17.59v0.15c0,1.32,0.15,3.62,1.86,5.34c1.68,1.68,3.91,1.83,5.67,1.83 c2.08,0,3.58-0.29,4.68-0.91c1.57-0.91,1.94-2.23,2.01-3.22H462.47z M459.8,533.58c0.07-2.93-1.57-4.57-1.86-4.83 c-1.61-1.5-3.88-1.68-5.37-1.68c-1.54,0-3.77,0.22-5.37,1.86c-1.02,1.02-1.79,2.74-1.83,4.64H459.8z" style="fill: rgb(124, 124, 123);"/>
      <path class="st2" d="M479.73,527.73h-0.37c-1.79,0-4.28,0.18-6,1.83c-1.61,1.57-1.86,3.84-1.86,6.73v7.97h-3.07v-18.57h3v3.66 h0.11c0.73-1.57,1.86-2.6,2.96-3.18c1.54-0.8,3.18-0.84,4.75-0.84h0.48V527.73z" style="fill: rgb(124, 124, 123);"/>
      <path class="st2" d="M502.22,538.74c-0.29,3.84-3.22,5.16-3.91,5.45c-1.65,0.66-3.62,0.8-5.85,0.8c-2.6,0-5.74-0.18-8.01-2.45 c-1.21-1.21-2.49-3.47-2.49-7.42c0-1.97,0.29-5.08,2.63-7.42c2.3-2.3,5.41-2.74,7.71-2.74c3.58,0,6.14,0.77,7.9,2.56 c2.05,2.12,2.41,4.86,2.41,7.6v0.44h-17.59v0.15c0,1.32,0.15,3.62,1.86,5.34c1.68,1.68,3.91,1.83,5.67,1.83 c2.08,0,3.58-0.29,4.68-0.91c1.57-0.91,1.94-2.23,2.01-3.22H502.22z M499.55,533.58c0.07-2.93-1.57-4.57-1.86-4.83 c-1.61-1.5-3.88-1.68-5.37-1.68c-1.54,0-3.77,0.22-5.37,1.86c-1.02,1.02-1.79,2.74-1.83,4.64H499.55z" style="fill: rgb(124, 124, 123);"/>
      <path class="st2" d="M536.84,544.26h-18.94v-25.59h3.22v22.89h15.72V544.26z" style="fill: rgb(124, 124, 123);"/>
      <path class="st2" d="M559.77,538.74c-0.29,3.84-3.22,5.16-3.91,5.45c-1.65,0.66-3.62,0.8-5.85,0.8c-2.6,0-5.74-0.18-8.01-2.45 c-1.21-1.21-2.49-3.47-2.49-7.42c0-1.97,0.29-5.08,2.63-7.42c2.3-2.3,5.41-2.74,7.71-2.74c3.58,0,6.14,0.77,7.9,2.56 c2.05,2.12,2.41,4.86,2.41,7.6v0.44h-17.59v0.15c0,1.32,0.15,3.62,1.86,5.34c1.68,1.68,3.91,1.83,5.67,1.83 c2.08,0,3.58-0.29,4.68-0.91c1.57-0.91,1.94-2.23,2.01-3.22H559.77z M557.1,533.58c0.07-2.93-1.57-4.57-1.86-4.83 c-1.61-1.5-3.88-1.68-5.37-1.68c-1.54,0-3.77,0.22-5.37,1.86c-1.02,1.02-1.79,2.74-1.83,4.64H557.1z" style="fill: rgb(124, 124, 123);"/>
      <path class="st2" d="M565.62,518.59h3.29v3.07h-3.29V518.59z M568.8,525.68v18.57h-3.07v-18.57H568.8z" style="fill: rgb(124, 124, 123);"/>
      <path class="st2" d="M591.51,541.48c-0.44,0.84-1.24,1.86-2.71,2.6c-1.43,0.69-3.03,0.88-4.61,0.88c-2.19,0-4.97-0.15-7.24-2.56 c-1.32-1.43-2.6-3.91-2.6-7.75c0-1.9,0.29-4.83,2.6-7.13c2.05-2.05,4.57-2.52,7.09-2.52c1.68,0,3.22,0.22,4.83,1.06 c1.28,0.69,2.08,1.5,2.71,2.52v-9.91h3.07v25.59h-3.03v-2.78H591.51z M589.46,528.94c-1.1-1.06-2.67-1.83-4.94-1.83 c-2.41,0-3.99,0.84-5.01,1.9c-0.99,0.99-2.01,2.82-2.01,5.81c0,2.16,0.62,4.61,2.08,6.14c1.54,1.61,3.47,1.86,4.9,1.86 c2.63,0,4.24-1.06,5.08-1.94c0.44-0.44,2.08-2.27,2.08-5.92C591.66,532.27,590.78,530.22,589.46,528.94z" style="fill: rgb(124, 124, 123);"/>
      <path class="st2" d="M620.47,538.74c-0.29,3.84-3.22,5.16-3.91,5.45c-1.65,0.66-3.62,0.8-5.85,0.8c-2.6,0-5.74-0.18-8.01-2.45 c-1.21-1.21-2.49-3.47-2.49-7.42c0-1.97,0.29-5.08,2.63-7.42c2.3-2.3,5.41-2.74,7.71-2.74c3.58,0,6.14,0.77,7.9,2.56 c2.05,2.12,2.41,4.86,2.41,7.6v0.44h-17.59v0.15c0,1.32,0.15,3.62,1.86,5.34c1.68,1.68,3.91,1.83,5.67,1.83 c2.08,0,3.58-0.29,4.68-0.91c1.57-0.91,1.94-2.23,2.01-3.22H620.47z M617.8,533.58c0.07-2.93-1.57-4.57-1.86-4.83 c-1.61-1.5-3.88-1.68-5.37-1.68c-1.54,0-3.77,0.22-5.37,1.86c-1.02,1.02-1.79,2.74-1.83,4.64H617.8z" style="fill: rgb(124, 124, 123);"/>
      <path class="st2" d="M629.54,525.68v2.67c0.84-1.32,1.9-2.08,2.67-2.49c1.46-0.77,3-0.88,4.42-0.88c1.97,0,4.57,0.26,6.18,1.9 c1.5,1.5,1.61,3.51,1.61,4.79v12.58h-3.07v-11.3c0-1.57-0.07-3.44-1.28-4.61c-0.88-0.88-2.41-1.24-3.95-1.24 c-1.65,0-3.29,0.33-4.64,1.68c-0.95,0.95-1.9,2.6-1.9,5.96v9.51h-3.14v-18.57H629.54z" style="fill: rgb(124, 124, 123);"/>
      <path class="st2" d="M652.47,538.85v0.11c0,0.91,0.22,2.27,1.76,3.14c0.66,0.37,1.83,0.77,4.28,0.77c2.41,0,3.51-0.33,4.09-0.66 c0.84-0.48,1.61-1.39,1.61-2.82c0-1.21-0.62-1.9-1.54-2.38c-0.4-0.22-1.21-0.55-3.62-0.99l-2.45-0.44 c-3.22-0.59-4.46-1.13-5.16-1.61c-1.21-0.88-1.65-2.01-1.65-3.4c0-1.9,0.73-3.36,2.45-4.39c1.79-1.1,3.99-1.24,5.74-1.24 c1.79,0,3.88,0.11,5.67,0.91c2.08,0.95,3.03,2.67,2.93,4.64h-3c0.04-0.91-0.26-2.34-2.08-3c-0.33-0.11-1.46-0.48-3.58-0.48 c-2.19,0-3.22,0.51-3.66,0.77c-1.06,0.66-1.43,1.65-1.43,2.49c0,0.88,0.37,1.57,1.24,2.08c1.06,0.62,2.71,0.88,5.01,1.32 l2.45,0.48c2.08,0.4,3.25,0.84,4.06,1.46c1.39,1.06,1.72,2.45,1.72,3.66c0,1.72-0.55,3.18-2.08,4.28 c-1.86,1.32-4.53,1.43-6.51,1.43c-4.5,0-6.07-0.8-6.76-1.24c-2.12-1.32-2.45-3.4-2.45-4.79v-0.11H652.47z" style="fill: rgb(124, 124, 123);"/>
      <path class="st2" d="M688.34,531.28c-0.11-1.06-0.55-1.97-1.1-2.56c-1.39-1.46-3.8-1.65-5.16-1.65c-1.68,0-3.77,0.26-5.41,1.9 c-1.79,1.79-2.08,4.35-2.08,6.14c0,3.25,1.02,5.08,2.08,6.07c1.54,1.43,3.62,1.68,5.37,1.68c1.17,0,2.96-0.11,4.24-0.88 c1.46-0.88,2.19-2.52,2.19-4.24h2.92c0,2.08-0.8,3.99-1.86,5.08c-1.94,1.97-5.16,2.16-8.01,2.16c-2.45,0-5.23-0.22-7.5-2.45 c-2.34-2.3-2.6-5.45-2.6-7.39c0-2.08,0.33-5.19,2.74-7.57c2.34-2.3,5.34-2.63,7.71-2.63c1.86,0,4.79,0.22,6.8,1.61 c2.16,1.5,2.52,3.51,2.56,4.72H688.34z" style="fill: rgb(124, 124, 123);"/>
      <path class="st2" d="M699.56,518.66v9.65c0.51-0.77,1.32-1.72,2.7-2.45c1.46-0.77,2.74-0.88,4.24-0.88c1.79,0,4.46,0.11,6.25,1.86 c1.57,1.54,1.65,3.33,1.65,4.9v12.5h-3.07V533c0-1.35-0.04-3.4-1.35-4.68c-0.66-0.62-1.79-1.21-3.88-1.21 c-1.39,0-3.33,0.26-4.72,1.75c-1.28,1.35-1.83,3.58-1.83,5.7v9.69h-3.07v-25.59H699.56z" style="fill: rgb(124, 124, 123);"/>
      <path class="st2" d="M720.37,531.02c-0.04-1.86,0.77-3.18,1.54-3.99c1.61-1.68,4.13-2.08,7.17-2.08c2.56,0,5.74,0.33,7.42,2.08 c1.35,1.43,1.39,3.25,1.39,4.46v8.45c0,0.48-0.07,1.24,0.37,1.76c0.36,0.44,1.13,0.62,1.94,0.37v2.12 c-0.55,0.11-1.02,0.18-1.5,0.18c-0.91,0-2.01-0.07-2.74-0.88c-0.51-0.55-0.77-1.43-0.77-2.19c-0.84,1.35-1.94,2.16-2.85,2.6 c-1.39,0.66-3.14,0.8-4.83,0.8c-2.67,0-4.9-0.29-6.36-1.75c-0.77-0.73-1.43-1.94-1.43-3.66s0.69-2.89,1.35-3.58 c1.54-1.54,4.28-1.83,5.96-1.9l2.71-0.15c0.44-0.04,1.94-0.15,2.56-0.22c0.88-0.11,1.54-0.26,1.9-0.62 c0.37-0.33,0.62-0.95,0.62-1.9c0-1.28-0.51-2.12-0.99-2.6c-1.24-1.24-3.91-1.39-5.01-1.39c-2.78,0-4.02,0.77-4.61,1.43 c-0.48,0.51-0.99,1.39-0.91,2.67H720.37z M734.96,534.42c-0.26,0.22-0.51,0.37-0.88,0.48c-1.35,0.44-3.36,0.48-4.2,0.51 l-1.57,0.07c-1.65,0.07-3.66,0.29-4.68,1.46c-0.44,0.48-0.77,1.24-0.77,2.12c0,1.1,0.47,2.05,1.17,2.63 c1.17,0.99,3.11,1.02,3.84,1.02c2.7,0,4.24-0.84,5.12-1.72c1.32-1.32,1.86-3.66,1.94-5.59L734.96,534.42z" style="fill: rgb(124, 124, 123);"/>
      <path class="st2" d="M754.26,527.88h-4.64v16.38h-3.07v-16.38h-3.95v-2.19h3.95v-2.49c0-1.68,0.58-2.89,1.28-3.55 c1.17-1.13,3-1.17,3.88-1.17s1.65,0.07,2.52,0.26v2.05c-0.4-0.07-1.21-0.18-1.79-0.18c-0.95,0-1.68,0.26-2.08,0.66 c-0.66,0.62-0.73,1.57-0.73,2.3v2.12h4.64V527.88z" style="fill: rgb(124, 124, 123);"/>
      <path class="st2" d="M756.53,525.68h4.06v-5.56h3.07v5.56h4.46v2.19h-4.46v12.32c0,0.58,0,1.35,0.48,1.86 c0.48,0.51,1.24,0.59,1.79,0.59c0.58,0,1.39-0.11,2.3-0.48v2.08c-1.21,0.44-2.12,0.51-3.14,0.51c-1.17,0-2.49-0.07-3.4-0.8 c-1.1-0.91-1.1-2.3-1.1-3.8v-12.28h-4.06V525.68z" style="fill: rgb(124, 124, 123);"/>
      <path class="st2" d="M772.59,540.78h3.44v3.47h-3.44V540.78z" style="fill: rgb(124, 124, 123);"/>
    </g>
  </g>
  <g transform="matrix(1, 0, 0, 1, -75.215019, -372.985016)">
    <linearGradient id="SVGID_1_" gradientUnits="userSpaceOnUse" x1="75.1969" y1="427.1998" x2="775.1968" y2="427.1998">
      <stop offset="0.0152" style="stop-color:#203D6D"/>
      <stop offset="0.347" style="stop-color:#1C365F"/>
      <stop offset="0.9516" style="stop-color:#212D57"/>
    </linearGradient>
    <path class="st3" d="M775.2,478.39c0,1.65-1.35,3-3,3h-694c-1.65,0-3-1.35-3-3V376.01c0-1.65,1.35-3,3-3h694c1.65,0,3,1.35,3,3 V478.39z" style="fill: url(#SVGID_1_);"/>
    <g>
      <path class="st4" d="M150.16,434.83v0.24c0,1.83,0.37,4.33,3.23,6.04c2.07,1.22,5.55,1.65,8.11,1.65c2.32,0,5.55-0.24,7.56-1.28 c2.62-1.34,3.17-3.42,3.17-4.88c0-1.83-0.85-3.23-2.75-4.27c-1.52-0.85-3.54-1.34-6.89-1.95l-5.49-0.98 c-6.16-1.1-10.68-2.01-13.24-4.33c-1.71-1.53-2.87-3.78-2.87-7.14c0-4.39,1.77-7.81,5.8-10.31c4.15-2.56,9.33-3.05,13.6-3.05 c8.91,0,12.93,2.14,13.91,2.68c5.55,3.11,6.04,7.81,6.04,10.31h-9.64c-0.06-1.65-0.61-3.6-3.29-5c-1.95-1.04-4.76-1.28-7.26-1.28 c-2.14,0-4.45,0.24-6.41,1.22c-2.87,1.4-3.23,3.42-3.23,4.51c0,2.56,1.95,3.48,3.29,4.03c2.07,0.85,4.45,1.16,8.36,1.83l4.82,0.79 c3.97,0.67,8.11,1.53,10.92,3.66c3.42,2.62,4.03,5.98,4.03,8.72c0,5.98-2.87,9.33-5.8,11.1c-3.66,2.2-8.66,2.56-13.48,2.56 c-6.89,0-11.41-0.61-14.88-2.2c-6.22-2.87-7.44-8.11-7.44-12.51v-0.18H150.16z" style="fill: rgb(255, 255, 255);"/>
      <path class="st4" d="M236.17,433.91c-0.37,4.94-2.56,8.3-4.64,10.37c-5.12,5.19-12.08,5.55-17.75,5.55s-12.38-0.49-17.75-5.73 c-2.07-2.07-6.16-7.2-6.16-16.71c0-8.72,3.54-13.79,6.04-16.35c5.37-5.49,12.57-6.41,18.06-6.41c4.64,0,11.1,0.61,15.8,4.03 c5.12,3.72,5.86,8.48,6.04,11.04h-9.76c-0.18-1.83-0.85-4.09-3.54-5.92c-2.44-1.65-5.37-1.95-7.99-1.95 c-3.42,0-7.38,0.49-10.62,3.9c-1.89,2.01-3.96,5.55-3.96,11.53c0,5.37,1.65,9.39,4.09,11.83c3.17,3.11,7.14,3.54,10.37,3.54 c2.75,0,6.04-0.31,8.66-2.38c1.46-1.16,3.05-3.17,3.36-6.34H236.17z" style="fill: rgb(255, 255, 255);"/>
      <path class="st4" d="M255.57,448.55h-9.46v-42.7h9.46v16.59h22.51v-16.59h9.46v42.7h-9.46v-18.91h-22.51V448.55z" style="fill: rgb(255, 255, 255);"/>
      <path class="st4" d="M342.92,448.55h-9.39l-23.73-30.93v30.93h-9.46v-42.7h9.46l23.67,30.93v-30.93h9.46V448.55z" style="fill: rgb(255, 255, 255);"/>
      <path class="st4" d="M365.18,405.85v42.7h-9.46v-42.7H365.18z" style="fill: rgb(255, 255, 255);"/>
      <path class="st4" d="M373.6,413.17v-7.32h40.14v7.32h-15.31v35.38h-9.46v-35.38H373.6z" style="fill: rgb(255, 255, 255);"/>
      <path class="st4" d="M459.25,405.85v6.04l-28.49,29.34h29.1v7.32h-40.32v-7.02l27.76-28.37h-25.81v-7.32H459.25z" style="fill: rgb(255, 255, 255);"/>
      <path class="st4" d="M478.52,448.55h-9.46v-42.7h9.46v16.59h22.51v-16.59h9.46v42.7h-9.46v-18.91h-22.51V448.55z" style="fill: rgb(255, 255, 255);"/>
      <path class="st4" d="M564.04,410.85c3.9,3.6,6.53,8.85,6.53,16.35c0,8.48-3.42,13.48-6.53,16.35c-4.03,3.72-10.55,6.22-18.3,6.22 c-7.81,0-14.28-2.5-18.3-6.22c-2.93-2.75-6.59-7.93-6.59-16.35c0-8.54,3.66-13.67,6.59-16.35c3.42-3.11,9.33-6.22,18.3-6.22 C556.3,404.63,561.85,408.84,564.04,410.85z M535.25,415.55c-2.75,2.62-4.33,6.89-4.33,11.65c0,4.76,1.59,8.97,4.33,11.59 c2.26,2.2,5.92,3.78,10.43,3.78c4.58,0,8.24-1.65,10.49-3.78c2.68-2.56,4.27-6.83,4.27-11.59c0-4.7-1.59-9.03-4.27-11.65 c-1.83-1.77-5.12-3.72-10.49-3.72C540.37,411.83,537.14,413.72,535.25,415.55z" style="fill: rgb(255, 255, 255);"/>
      <path class="st4" d="M612.6,423.91v7.08h-22.21v17.57h-9.46v-42.7h35.93v7.2h-26.48v10.86H612.6z" style="fill: rgb(255, 255, 255);"/>
      <path class="st4" d="M659.14,423.23v7.08h-24.4v11.04h28.98v7.2h-38.43v-42.7h37.7v7.2h-28.25v10.19H659.14z" style="fill: rgb(255, 255, 255);"/>
      <path class="st4" d="M672.38,405.85h24.22c3.78,0,9.82,0.24,13.36,3.29c2.93,2.5,3.42,5.92,3.42,8.42c0,2.68-0.55,5.31-2.87,7.63 c-1.53,1.52-3.6,2.56-5.61,2.99v0.18c1.65,0.3,3.66,1.16,4.94,2.5c1.95,1.95,2.07,4.15,2.2,6.28l0.37,5.37 c0.18,2.26,0.06,3.72,1.77,6.04H704.1c-1.16-1.71-1.53-3.29-1.65-5.49l-0.18-3.96c-0.12-2.01-0.24-4.27-2.2-5.86 c-1.77-1.46-4.76-1.59-6.53-1.59h-11.71v16.9h-9.46V405.85z M681.83,425.07h13.3c2.13,0,4.7-0.55,6.04-1.34 c1.1-0.67,2.68-2.2,2.68-5.06c0-2.81-1.4-4.21-2.5-4.88c-2.07-1.34-5.06-1.22-7.02-1.22h-12.51V425.07z" style="fill: rgb(255, 255, 255);"/>
    </g>
  </g>
  <g transform="matrix(1, 0, 0, 1, -75.215019, -372.985016)">
    <path class="st2" d="M145.17,523.92h-0.2l0.2,1.82v28.91h-4.45v-35.38h6.47l14.25,30.68l14.2-30.68h6.47v35.38h-4.45v-28.91 l0.2-1.82h-0.2l-14.35,30.73h-3.79L145.17,523.92z" style="fill: rgb(124, 124, 123);"/>
    <path class="st2" d="M217.13,532.01c1.72,1.72,3.39,4.6,3.39,9.35c0,4.35-1.41,8.19-3.84,10.61c-3.44,3.44-7.98,3.69-10.92,3.69 c-3.84,0-8.14-0.56-11.47-3.69c-2.27-2.17-3.84-5.31-3.84-9.85c0-6.37,2.93-9.55,3.84-10.46c1.92-1.87,5.31-3.69,11.17-3.69 C211.77,527.97,215.26,530.14,217.13,532.01z M197.98,533.57c-2.07,1.97-3.18,5.1-3.18,8.29c0,2.98,1.06,6.27,3.18,8.24 c1.57,1.47,4.09,2.63,7.63,2.63c3.74,0,6.01-1.31,7.43-2.63c1.77-1.72,3.13-4.7,3.13-8.29c0-3.03-1.06-6.27-3.08-8.24 c-1.57-1.52-4.19-2.68-7.58-2.68C201.97,530.9,199.54,532.11,197.98,533.57z" style="fill: rgb(124, 124, 123);"/>
    <path class="st2" d="M232.39,554.65h-4.19v-35.38h4.25v13.7c0.86-1.41,1.97-2.53,3.74-3.49c2.22-1.16,4.35-1.47,6.67-1.47 c3.49,0,6.97,0.66,9.8,3.49c3.18,3.18,3.59,7.23,3.59,9.85c0,5.31-1.77,8.74-3.59,10.71c-3.13,3.34-6.97,3.54-10.01,3.54 c-2.17,0-4.4-0.25-6.37-1.21c-2.02-1.01-3.13-2.43-3.74-3.59h-0.15V554.65z M235.22,550c1.16,1.21,3.39,2.68,7.02,2.68 c1.97,0,4.65-0.35,6.77-2.58c2.02-2.12,2.88-5.51,2.88-8.49c0-4.14-1.41-6.67-2.78-8.04c-1.41-1.47-3.59-2.63-6.92-2.63 c-3.13,0-5.31,1.06-6.82,2.53c-1.82,1.77-3.03,4.6-3.03,8.34C232.34,546.87,234.61,549.39,235.22,550z" style="fill: rgb(124, 124, 123);"/>
    <path class="st2" d="M263.77,519.17h4.55v4.24h-4.55V519.17z M268.16,528.98v25.67h-4.25v-25.67H268.16z" style="fill: rgb(124, 124, 123);"/>
    <path class="st2" d="M281.4,519.27v35.38h-4.25v-35.38H281.4z" style="fill: rgb(124, 124, 123);"/>
    <path class="st2" d="M290.24,519.17h4.55v4.24h-4.55V519.17z M294.64,528.98v25.67h-4.25v-25.67H294.64z" style="fill: rgb(124, 124, 123);"/>
    <path class="st2" d="M299.94,528.98h5.61v-7.68h4.24v7.68h6.17v3.03h-6.17v17.03c0,0.81,0,1.87,0.66,2.58 c0.66,0.71,1.72,0.81,2.48,0.81c0.81,0,1.92-0.15,3.18-0.66v2.88c-1.67,0.61-2.93,0.71-4.35,0.71c-1.62,0-3.44-0.1-4.7-1.11 c-1.52-1.26-1.52-3.18-1.52-5.26v-16.98h-5.61V528.98z" style="fill: rgb(124, 124, 123);"/>
    <path class="st2" d="M322.23,536.35c-0.05-2.58,1.06-4.4,2.12-5.51c2.22-2.32,5.71-2.88,9.91-2.88c3.54,0,7.93,0.45,10.26,2.88 c1.87,1.97,1.92,4.5,1.92,6.17v11.67c0,0.66-0.1,1.72,0.51,2.43c0.51,0.61,1.57,0.86,2.68,0.51v2.93 c-0.76,0.15-1.42,0.25-2.07,0.25c-1.26,0-2.78-0.1-3.79-1.21c-0.71-0.76-1.06-1.97-1.06-3.03c-1.16,1.87-2.68,2.98-3.94,3.59 c-1.92,0.91-4.35,1.11-6.67,1.11c-3.69,0-6.77-0.4-8.79-2.43c-1.06-1.01-1.97-2.68-1.97-5.05c0-2.38,0.96-3.99,1.87-4.95 c2.12-2.12,5.91-2.53,8.24-2.63l3.74-0.2c0.61-0.05,2.68-0.2,3.54-0.3c1.21-0.15,2.12-0.35,2.63-0.86 c0.51-0.45,0.86-1.31,0.86-2.63c0-1.77-0.71-2.93-1.36-3.59c-1.72-1.72-5.41-1.92-6.92-1.92c-3.84,0-5.56,1.06-6.37,1.97 c-0.66,0.71-1.36,1.92-1.26,3.69H322.23z M342.39,541.05c-0.35,0.3-0.71,0.51-1.21,0.66c-1.87,0.61-4.65,0.66-5.81,0.71l-2.17,0.1 c-2.27,0.1-5.05,0.4-6.47,2.02c-0.61,0.66-1.06,1.72-1.06,2.93c0,1.52,0.66,2.83,1.62,3.64c1.62,1.36,4.3,1.41,5.31,1.41 c3.74,0,5.86-1.16,7.07-2.38c1.82-1.82,2.58-5.05,2.68-7.73L342.39,541.05z M326.57,519.17h4.14v4.14h-4.14V519.17z M337.24,519.17 h4.14v4.14h-4.14V519.17z" style="fill: rgb(124, 124, 123);"/>
    <path class="st2" d="M352.95,528.98h5.61v-7.68h4.24v7.68h6.17v3.03h-6.17v17.03c0,0.81,0,1.87,0.66,2.58 c0.66,0.71,1.72,0.81,2.48,0.81c0.81,0,1.92-0.15,3.18-0.66v2.88c-1.67,0.61-2.93,0.71-4.35,0.71c-1.62,0-3.44-0.1-4.7-1.11 c-1.52-1.26-1.52-3.18-1.52-5.26v-16.98h-5.61V528.98z" style="fill: rgb(124, 124, 123);"/>
    <path class="st2" d="M391.76,554.65h-4.19v-35.38h4.25v13.7c0.86-1.41,1.97-2.53,3.74-3.49c2.22-1.16,4.35-1.47,6.67-1.47 c3.49,0,6.97,0.66,9.8,3.49c3.18,3.18,3.59,7.23,3.59,9.85c0,5.31-1.77,8.74-3.59,10.71c-3.13,3.34-6.97,3.54-10.01,3.54 c-2.17,0-4.4-0.25-6.37-1.21c-2.02-1.01-3.13-2.43-3.74-3.59h-0.15V554.65z M394.59,550c1.16,1.21,3.39,2.68,7.02,2.68 c1.97,0,4.65-0.35,6.77-2.58c2.02-2.12,2.88-5.51,2.88-8.49c0-4.14-1.41-6.67-2.78-8.04c-1.41-1.47-3.59-2.63-6.92-2.63 c-3.13,0-5.31,1.06-6.82,2.53c-1.82,1.77-3.03,4.6-3.03,8.34C391.7,546.87,393.98,549.39,394.59,550z" style="fill: rgb(124, 124, 123);"/>
    <path class="st2" d="M438.9,531.81h-0.51c-2.48,0-5.91,0.25-8.29,2.53c-2.22,2.17-2.58,5.31-2.58,9.3v11.02h-4.25v-25.67h4.14v5.05 h0.15c1.01-2.17,2.58-3.59,4.09-4.4c2.12-1.11,4.4-1.16,6.57-1.16h0.66V531.81z" style="fill: rgb(124, 124, 123);"/>
    <path class="st2" d="M442.54,536.35c-0.05-2.58,1.06-4.4,2.12-5.51c2.22-2.32,5.71-2.88,9.91-2.88c3.54,0,7.93,0.45,10.26,2.88 c1.87,1.97,1.92,4.5,1.92,6.17v11.67c0,0.66-0.1,1.72,0.51,2.43c0.51,0.61,1.57,0.86,2.68,0.51v2.93 c-0.76,0.15-1.41,0.25-2.07,0.25c-1.26,0-2.78-0.1-3.79-1.21c-0.71-0.76-1.06-1.97-1.06-3.03c-1.16,1.87-2.68,2.98-3.94,3.59 c-1.92,0.91-4.35,1.11-6.67,1.11c-3.69,0-6.77-0.4-8.79-2.43c-1.06-1.01-1.97-2.68-1.97-5.05c0-2.38,0.96-3.99,1.87-4.95 c2.12-2.12,5.91-2.53,8.24-2.63l3.74-0.2c0.61-0.05,2.68-0.2,3.54-0.3c1.21-0.15,2.12-0.35,2.63-0.86 c0.51-0.45,0.86-1.31,0.86-2.63c0-1.77-0.71-2.93-1.36-3.59c-1.72-1.72-5.41-1.92-6.92-1.92c-3.84,0-5.56,1.06-6.37,1.97 c-0.66,0.71-1.36,1.92-1.26,3.69H442.54z M462.7,541.05c-0.35,0.3-0.71,0.51-1.21,0.66c-1.87,0.61-4.65,0.66-5.81,0.71l-2.17,0.1 c-2.27,0.1-5.05,0.4-6.47,2.02c-0.61,0.66-1.06,1.72-1.06,2.93c0,1.52,0.66,2.83,1.62,3.64c1.62,1.36,4.3,1.41,5.31,1.41 c3.74,0,5.86-1.16,7.07-2.38c1.82-1.82,2.58-5.05,2.68-7.73L462.7,541.05z" style="fill: rgb(124, 124, 123);"/>
    <path class="st2" d="M497.67,554.65v-3.64h-0.2c-0.91,1.82-2.27,2.83-3.28,3.39c-1.26,0.66-3.13,1.21-6.22,1.21 c-2.17,0-5.41-0.2-7.63-1.77c-2.73-1.92-3.39-4.9-3.39-8.84v-16.02h4.24v15.67c0,1.97,0,4.4,1.62,6.12 c0.96,1.01,2.63,1.92,5.71,1.92c2.32,0,4.65-0.45,6.42-2.32c1.21-1.26,2.58-3.64,2.58-7.83v-13.54h4.24v25.67H497.67z" style="fill: rgb(124, 124, 123);"/>
    <path class="st2" d="M532.79,536.71c-0.15-1.47-0.76-2.73-1.52-3.54c-1.92-2.02-5.26-2.27-7.13-2.27c-2.32,0-5.21,0.35-7.48,2.63 c-2.48,2.48-2.88,6.01-2.88,8.49c0,4.5,1.41,7.02,2.88,8.39c2.12,1.97,5,2.32,7.43,2.32c1.62,0,4.09-0.15,5.86-1.21 c2.02-1.21,3.03-3.49,3.03-5.86h4.04c0,2.88-1.11,5.51-2.58,7.02c-2.68,2.73-7.13,2.98-11.07,2.98c-3.39,0-7.23-0.3-10.36-3.39 c-3.23-3.18-3.59-7.53-3.59-10.21c0-2.88,0.45-7.18,3.79-10.46c3.23-3.18,7.38-3.64,10.66-3.64c2.58,0,6.62,0.3,9.4,2.22 c2.98,2.07,3.49,4.85,3.54,6.52H532.79z" style="fill: rgb(124, 124, 123);"/>
    <path class="st2" d="M548.3,519.27v13.34c0.71-1.06,1.82-2.38,3.74-3.39c2.02-1.06,3.79-1.21,5.86-1.21c2.48,0,6.16,0.15,8.64,2.58 c2.17,2.12,2.27,4.6,2.27,6.77v17.28h-4.24v-15.57c0-1.87-0.05-4.7-1.87-6.47c-0.91-0.86-2.48-1.67-5.36-1.67 c-1.92,0-4.6,0.35-6.52,2.43c-1.77,1.87-2.53,4.95-2.53,7.88v13.39h-4.24v-35.38H548.3z" style="fill: rgb(124, 124, 123);"/>
    <path class="st2" d="M574.12,528.98h5.61v-7.68h4.24v7.68h6.17v3.03h-6.17v17.03c0,0.81,0,1.87,0.66,2.58 c0.66,0.71,1.72,0.81,2.48,0.81c0.81,0,1.92-0.15,3.18-0.66v2.88c-1.67,0.61-2.93,0.71-4.35,0.71c-1.62,0-3.44-0.1-4.7-1.11 c-1.52-1.26-1.52-3.18-1.52-5.26v-16.98h-5.61V528.98z" style="fill: rgb(124, 124, 123);"/>
    <path class="st2" d="M620.91,554.65h-5.15l-10.71-35.38h4.85l8.54,30.83l10.16-30.83h4.8l10.06,30.83l8.54-30.83h4.8l-10.66,35.38 h-5.16l-10.01-30.98L620.91,554.65z" style="fill: rgb(124, 124, 123);"/>
    <path class="st2" d="M686.95,547.02c-0.4,5.31-4.45,7.13-5.41,7.53c-2.27,0.91-5,1.11-8.09,1.11c-3.59,0-7.93-0.25-11.07-3.39 c-1.67-1.67-3.44-4.8-3.44-10.26c0-2.73,0.4-7.03,3.64-10.26c3.18-3.18,7.48-3.79,10.66-3.79c4.95,0,8.49,1.06,10.92,3.54 c2.83,2.93,3.34,6.72,3.34,10.51v0.61H663.2v0.2c0,1.82,0.2,5,2.58,7.38c2.32,2.32,5.41,2.53,7.83,2.53c2.88,0,4.95-0.4,6.47-1.26 c2.17-1.26,2.68-3.08,2.78-4.45H686.95z M683.26,539.89c0.1-4.04-2.17-6.32-2.58-6.67c-2.22-2.07-5.36-2.32-7.43-2.32 c-2.12,0-5.21,0.3-7.43,2.58c-1.41,1.41-2.48,3.79-2.53,6.42H683.26z" style="fill: rgb(124, 124, 123);"/>
    <path class="st2" d="M710.8,531.81h-0.51c-2.48,0-5.91,0.25-8.29,2.53c-2.22,2.17-2.58,5.31-2.58,9.3v11.02h-4.24v-25.67h4.14v5.05 h0.15c1.01-2.17,2.58-3.59,4.09-4.4c2.12-1.11,4.4-1.16,6.57-1.16h0.66V531.81z" style="fill: rgb(124, 124, 123);"/>
    <path class="st2" d="M715.75,528.98h5.61v-7.68h4.24v7.68h6.16v3.03h-6.16v17.03c0,0.81,0,1.87,0.66,2.58 c0.66,0.71,1.72,0.81,2.48,0.81c0.81,0,1.92-0.15,3.18-0.66v2.88c-1.67,0.61-2.93,0.71-4.35,0.71c-1.62,0-3.44-0.1-4.7-1.11 c-1.52-1.26-1.52-3.18-1.52-5.26v-16.98h-5.61V528.98z" style="fill: rgb(124, 124, 123);"/>
    <path class="st2" d="M764.26,547.02c-0.4,5.31-4.45,7.13-5.41,7.53c-2.27,0.91-5,1.11-8.09,1.11c-3.59,0-7.93-0.25-11.07-3.39 c-1.67-1.67-3.44-4.8-3.44-10.26c0-2.73,0.4-7.03,3.64-10.26c3.18-3.18,7.48-3.79,10.66-3.79c4.95,0,8.49,1.06,10.92,3.54 c2.83,2.93,3.34,6.72,3.34,10.51v0.61h-24.31v0.2c0,1.82,0.2,5,2.58,7.38c2.32,2.32,5.41,2.53,7.83,2.53c2.88,0,4.95-0.4,6.47-1.26 c2.17-1.26,2.68-3.08,2.78-4.45H764.26z M760.57,539.89c0.1-4.04-2.17-6.32-2.58-6.67c-2.22-2.07-5.36-2.32-7.43-2.32 c-2.12,0-5.21,0.3-7.43,2.58c-1.41,1.41-2.48,3.79-2.53,6.42H760.57z" style="fill: rgb(124, 124, 123);"/>
    <path class="st2" d="M770.73,549.85h4.75v4.8h-4.75V549.85z" style="fill: rgb(124, 124, 123);"/>
  </g>
</svg>